<?xml version="1.0" standalone="no"?><!DOCTYPE svg PUBLIC "-//W3C//DTD SVG 1.1//EN" "http://www.w3.org/Graphics/SVG/1.1/DTD/svg11.dtd"><svg t="1593952135290" class="icon" viewBox="0 0 1024 1024" version="1.1" xmlns="http://www.w3.org/2000/svg" p-id="663" xmlns:xlink="http://www.w3.org/1999/xlink" width="600" height="600"><defs><style type="text/css"></style></defs><path d="M525.3 898.5c-4.6 0.1-9.3 0.2-14 0.2-217 0-393-144.6-393-323s176-323 393-323c4.7 0 9.4 0.1 14 0.2-210.6 6-379 148.3-379 322.8s168.5 316.7 379 322.8z" fill="#FFDCE4" p-id="664"></path><path d="M146.3 575.7a379 322.8 0 1 0 758 0 379 322.8 0 1 0-758 0Z" fill="#FFBBC8" p-id="665"></path><path d="M904.3 575.7c0 178.4-176 323-393 323-4.7 0-9.4-0.1-14-0.2 210.6-6 379-148.3 379-322.8S707.9 259 497.3 252.9c4.6-0.1 9.3-0.2 14-0.2 217.1 0 393 144.6 393 323z" fill="#EA8FA5" p-id="666"></path><path d="M771.7 561.8c0-28.4-17.8-53-43.7-64.8-8.5-3.9-13.7-12.5-12.9-21.8 1.2-14.7-3.2-28.8-13.3-39-14.1-14.1-35.7-17-55.9-9.6-7.2 2.6-15.2 1.5-21.2-3.3-15.7-12.4-38.8-20.2-64.7-20.2-16.5 0-31.9 3.2-44.9 8.7-7.1 3-15.2 2.2-21.5-2.3-9.3-6.6-21-10.5-33.7-10.5-14.3 0-27.3 5-37.1 13.2-5.6 4.7-13.2 6.2-20.3 4.1-9.2-2.7-19.1-4.2-29.5-4.2-48.2 0-87.3 32.5-87.3 72.7 0 4.6 0.5 9 1.5 13.4 2.2 9.9-2.9 19.9-12 24.4-14.4 7.1-24.1 20.8-24.1 36.4 0 11 4.8 21.1 12.7 28.5 5.8 5.5 8.3 13.5 6.5 21.3-6.7 29-1.2 57.2 17.7 76.1 20 20 50.6 25 81.4 16.3 9.4-2.6 19.4 1.3 24.5 9.6 15.2 24.6 49.8 41.8 89.9 41.8 31.2 0 59-10.4 77-26.5 6.6-5.9 16.1-7.2 24-3.4 10.9 5.3 23.8 8.3 37.5 8.3 32 0 59-16.4 68.5-39 3.5-8.3 11.6-13.7 20.6-13.7h0.2c33.2 0 60.1-24.8 60.1-55.4 0-7.1-1.5-13.9-4.1-20.2-2.2-5.3-2.5-11.2-0.4-16.5 2.9-7.8 4.5-15.9 4.5-24.4z" fill="#FFF3F6" p-id="667"></path><path d="M383.7 416.3c-1.4 0-2.7 0-4.1 0.1-28.3 1.4-52.7 17.5-65.8 40.9-1.4 2.4 0.8 5.3 3.5 4.8 5.1-0.9 10.4-1.4 15.7-1.4 17.1 0 33.1 4.9 46.6 13.3 8.4 5.4 18.4 8.6 29.2 8.6 18.1 0 34.2-9 44-22.7 0.7-1.1 0.9-2.4 0.2-3.6-13.8-23.9-39.6-40-69.3-40z" p-id="668"></path><path d="M389 455.8a16.7 8.2 0 1 0 33.4 0 16.7 8.2 0 1 0-33.4 0Z" fill="#FFFFFF" p-id="669"></path><path d="M361 438.1a10.7 5.3 0 1 0 21.4 0 10.7 5.3 0 1 0-21.4 0Z" fill="#FFFFFF" p-id="670"></path><path d="M640.9 416.3c1.4 0 2.7 0 4.1 0.1 28.3 1.4 52.7 17.5 65.8 40.9 1.4 2.4-0.8 5.3-3.5 4.8-5.1-0.9-10.4-1.4-15.7-1.4-17.1 0-33.1 4.9-46.6 13.3-8.4 5.4-18.4 8.6-29.2 8.6-18.1 0-34.2-9-44-22.7-0.7-1.1-0.9-2.4-0.2-3.6 13.8-23.9 39.7-40 69.3-40z" p-id="671"></path><path d="M602.3 455.8a16.7 8.2 0 1 0 33.4 0 16.7 8.2 0 1 0-33.4 0Z" fill="#FFFFFF" p-id="672"></path><path d="M642.3 438.1a10.7 5.3 0 1 0 21.4 0 10.7 5.3 0 1 0-21.4 0Z" fill="#FFFFFF" p-id="673"></path><path d="M612 609c0-32-44.8-58-100-58s-100 26-100 58 44.8 58 100 58c7.6 0 15.1-0.5 22.3-1.4 10.9-1.4 20.5 7.2 20.5 18.1v21.1c0 6.3 4.6 11.8 10.8 12.4 7.1 0.7 13.2-5 13.2-11.9v-26.2c0-0.9 1.1-1.4 1.8-0.7 1.4 1.6 3.5 2.5 5.8 2.5 4.4 0 8.1-3.6 8.1-8.1v-25.4c0-3.5 1.4-6.8 3.9-9.2 8.6-8.5 13.6-18.5 13.6-29.2z" fill="#FF99B9" p-id="674"></path><path d="M681.5 132.8c-3.6-3.6-8-6.1-12.6-7.4-6.8-1.9-14.2-1.4-20.6 1.7-2.9 1.4-5.7 3.3-8.1 5.7l-0.1-0.1c-3.6-3.6-8-6.1-12.6-7.4-4.6 1.3-9 3.8-12.7 7.4-11.4 11.4-11.4 30 0 41.4-11.4 11.4-11.4 30 0 41.4 3.7 3.7 8 6.1 12.7 7.4 4.6-1.3 9-3.8 12.7-7.4l0.1 0.1c2.4 2.4 5 4.2 7.9 5.6 6.5 3.2 14 3.8 20.9 1.8 4.6-1.3 9-3.8 12.6-7.5 11.4-11.4 11.4-29.9 0-41.4 11.2-11.4 11.2-29.9-0.2-41.3z" fill="#FCA8B5" p-id="675"></path><path d="M614.7 215.4c3.7 3.7 8 6.1 12.7 7.4-9.9 2.8-20.9 0.3-28.7-7.4-5.7-5.7-8.6-13.2-8.6-20.7s2.9-15 8.6-20.7c-11.4-11.4-11.4-30 0-41.4 7.8-7.8 18.9-10.3 28.7-7.4-4.6 1.3-9 3.8-12.7 7.4-11.4 11.4-11.4 30 0 41.4-11.4 11.5-11.4 30 0 41.4z" fill="#FFDCE4" p-id="676"></path><path d="M640 174.1m-10.6 0a10.6 10.6 0 1 0 21.2 0 10.6 10.6 0 1 0-21.2 0Z" fill="#FF99B9" p-id="677"></path><path d="M266.7 352m-3 0a3 3 0 1 0 6 0 3 3 0 1 0-6 0Z" fill="#FFFFFF" p-id="678"></path></svg>